<?xml version="1.0" standalone="no"?>
<!DOCTYPE svg PUBLIC "-//W3C//DTD SVG 20010904//EN"
 "http://www.w3.org/TR/2001/REC-SVG-20010904/DTD/svg10.dtd">
<svg version="1.0" xmlns="http://www.w3.org/2000/svg"
 width="577.000000pt" height="577.000000pt" viewBox="0 0 577.000000 577.000000"
 preserveAspectRatio="xMidYMid meet">
<metadata>
Created by potrace 1.11, written by Peter Selinger 2001-2013
</metadata>
<g transform="translate(0.000000,577.000000) scale(0.100000,-0.100000)"
fill="#000000" stroke="none">
<path d="M497 5216 c-138 -51 -200 -211 -134 -343 59 -116 182 -162 310 -116
190 68 205 352 24 445 -52 26 -149 33 -200 14z"/>
<path d="M1430 4859 c-314 -23 -573 -259 -627 -572 -11 -66 -5 -213 11 -277
18 -74 85 -215 121 -258 14 -17 25 -35 25 -41 0 -6 3 -11 8 -11 14 0 99 -86
139 -140 159 -219 150 -529 -21 -735 -103 -124 -207 -187 -366 -220 -259 -53
-449 -186 -552 -388 -55 -107 -73 -183 -73 -312 0 -135 14 -194 73 -314 37
-77 60 -109 126 -175 52 -52 103 -92 141 -111 33 -16 62 -33 65 -36 3 -3 14
-8 25 -12 11 -3 45 -13 75 -22 126 -38 324 -24 449 31 29 13 58 21 63 18 5 -3
28 -27 51 -53 64 -71 158 -162 213 -206 27 -22 58 -48 69 -58 86 -78 348 -226
505 -287 266 -102 460 -137 760 -138 375 0 682 78 995 251 104 58 275 174 305
207 16 17 98 79 101 76 15 -14 293 -23 359 -12 14 2 48 7 75 11 388 53 762
315 972 680 74 129 145 334 158 462 4 30 8 64 11 76 5 26 5 194 0 257 -19 219
-98 445 -219 625 -236 351 -591 565 -1012 609 -37 4 -54 11 -65 28 -36 54
-143 179 -216 253 -296 302 -706 517 -1114 584 -36 6 -81 13 -100 16 -60 10
-382 14 -455 5 -154 -18 -279 -43 -390 -78 l-60 -19 -65 66 c-78 80 -116 109
-196 149 -115 58 -231 81 -364 71z m1655 -640 c355 -54 622 -269 681 -549 55
-259 -86 -613 -279 -700 -81 -37 -154 -14 -177 56 -19 55 -6 164 31 264 61
167 67 286 20 377 -19 38 -81 102 -118 121 -29 15 -115 44 -153 50 -62 11
-293 7 -360 -7 -36 -7 -76 -15 -90 -17 -117 -21 -275 -101 -359 -183 -88 -85
-123 -157 -123 -250 0 -148 84 -258 272 -355 109 -56 184 -83 460 -162 351
-101 542 -170 649 -233 28 -17 54 -31 57 -31 14 0 155 -114 197 -159 51 -54
127 -166 127 -187 0 -7 3 -15 8 -17 4 -3 7 43 7 101 0 132 8 183 46 297 97
289 284 493 525 570 154 49 327 28 454 -56 226 -152 316 -491 229 -869 -64
-275 -238 -503 -462 -606 -205 -93 -486 -89 -713 11 -31 14 -58 25 -59 25 -2
0 -6 -12 -10 -27 -11 -48 -65 -152 -111 -218 -186 -266 -550 -470 -959 -540
-114 -19 -335 -25 -450 -11 -146 17 -321 77 -438 150 -188 116 -311 303 -345
521 -28 178 46 362 179 445 46 29 64 34 115 34 67 1 97 -16 116 -64 5 -14 11
-97 13 -185 5 -219 32 -299 133 -393 286 -266 1021 -113 1271 265 54 81 74
148 74 243 0 141 -52 242 -172 334 -57 44 -177 112 -236 134 -16 6 -57 20 -89
32 -33 12 -155 50 -271 85 -423 128 -571 184 -698 263 -194 120 -295 242 -338
409 -38 150 -21 308 48 447 46 94 82 143 158 220 193 194 523 341 836 372 35
3 65 7 66 8 6 6 174 -5 238 -15z"/>
<path d="M4549 2890 c-83 -44 -194 -208 -248 -369 -63 -185 -70 -394 -15 -501
36 -72 116 -107 192 -84 223 65 427 540 348 807 -38 129 -174 201 -277 147z"/>
<path d="M337 3693 c-3 -2 -14 -6 -26 -8 -45 -8 -130 -54 -171 -91 -99 -90
-141 -190 -136 -329 3 -78 8 -101 35 -158 81 -169 259 -263 441 -232 80 14
120 31 186 81 100 74 156 189 158 319 1 103 -22 176 -78 253 -79 107 -187 163
-323 167 -45 1 -84 0 -86 -2z"/>
</g>
</svg>
